<svg width="79" height="88" viewBox="0 0 79 88" fill="none" xmlns="http://www.w3.org/2000/svg">
<path fill-rule="evenodd" clip-rule="evenodd" d="M13.0297 87.4972C5.83491 87.4972 0 81.6623 0 74.4675V27.6742C0 22.9754 2.52859 18.647 6.61669 16.3342L32.5093 1.68779C36.4712 -0.55165 41.3125 -0.563949 45.2867 1.65929L71.5129 16.3297C75.6295 18.6343 78.1824 22.983 78.1824 27.702V74.4703C78.1824 81.6651 72.3475 87.5 65.1527 87.5H13.034L13.0297 87.4972ZM13.0297 78.8081H65.1485C67.5468 78.8081 69.4931 76.8658 69.4931 74.4675V27.6992C69.4931 26.1275 68.6421 24.678 67.2699 23.9084L41.0437 9.23803C39.7204 8.49696 38.108 8.50104 36.7847 9.25024L10.8921 23.8967C9.52804 24.6662 8.68518 26.1117 8.68518 27.6793V74.4726C8.68518 76.8709 10.6315 78.8132 13.0298 78.8132L13.0297 78.8081ZM30.404 70.123C28.0057 70.123 26.0594 68.1767 26.0594 65.7784C26.0594 63.3801 28.0057 61.4378 30.404 61.4378H47.7742C50.1725 61.4378 52.1188 63.3841 52.1188 65.7784C52.1188 68.1767 50.1725 70.123 47.7742 70.123H30.404Z" fill="currentColor"/>
</svg>
