<svg width="71" height="88" viewBox="0 0 71 88" fill="none" xmlns="http://www.w3.org/2000/svg">
<path d="M15.6247 87.5H54.5587C63.1721 87.5 70.1838 80.4883 70.1838 71.875L70.1877 28.7189C70.1877 20.1055 63.176 13.0938 54.5627 13.0938H52.2307L51.8166 11.3516C51.1408 8.52742 48.6447 6.55081 45.7385 6.55081H44.2619C42.9533 2.74611 39.34 0 35.0978 0C30.8555 0 27.2422 2.74611 25.9415 6.55081H24.4649C21.5547 6.55081 19.0547 8.52742 18.3868 11.3516L17.9688 13.0938H15.625C7.01172 13.0938 0 20.1055 0 28.7189V71.875C0 80.4883 7.01134 87.5 15.6247 87.5ZM6.24964 28.7189C6.24964 23.5509 10.4566 19.3438 15.6247 19.3438H16.6051C16.527 20.8438 16.9684 22.3205 17.9176 23.5236C19.109 25.0353 20.8981 25.9025 22.8238 25.9025H47.3629C49.2848 25.9025 51.0738 25.0392 52.2652 23.5275C53.2183 22.3204 53.6558 20.8438 53.5777 19.3438H54.5543C59.7223 19.3438 63.9293 23.5509 63.9293 28.7189L63.9371 71.875C63.9371 77.043 59.7301 81.25 54.5621 81.25H15.624C10.456 81.25 6.24898 77.043 6.24898 71.875L6.24964 28.7189ZM31.6717 9.67582C31.6717 7.78522 33.2069 6.25001 35.0975 6.25001C36.9881 6.25001 38.5233 7.78522 38.5233 9.67582C38.5233 11.4024 39.9217 12.8008 41.6483 12.8008H45.7303L47.367 19.6524H22.828L24.4647 12.8008H28.5467C30.2733 12.8008 31.6717 11.4024 31.6717 9.67582Z" fill="black"/>
<path d="M19.3789 57.2383H50.813C52.5396 57.2383 53.938 55.8399 53.938 54.1133C53.938 52.3867 52.5396 50.9883 50.813 50.9883H19.3789C17.6523 50.9883 16.2539 52.3867 16.2539 54.1133C16.2539 55.8399 17.6484 57.2383 19.3789 57.2383Z" fill="black"/>
<path d="M19.3789 71.9141H50.813C52.5396 71.9141 53.938 70.5157 53.938 68.7891C53.938 67.0625 52.5396 65.6641 50.813 65.6641H19.3789C17.6523 65.6641 16.2539 67.0625 16.2539 68.7891C16.2539 70.5157 17.6484 71.9141 19.3789 71.9141Z" fill="black"/>
<path d="M19.3789 42.5664H50.813C52.5396 42.5664 53.938 41.168 53.938 39.4414C53.938 37.7148 52.5396 36.3164 50.813 36.3164H19.3789C17.6523 36.3164 16.2539 37.7148 16.2539 39.4414C16.2539 41.168 17.6484 42.5664 19.3789 42.5664Z" fill="black"/>
</svg>
