<svg width="96" height="88" viewBox="0 0 96 88" fill="none" xmlns="http://www.w3.org/2000/svg">
<path d="M71.9813 0H23.1804C17.0326 0 11.1366 2.44222 6.78939 6.78939C2.44222 11.1366 0 17.0326 0 23.1804V52.461C0 56.0202 1.41391 59.4337 3.9307 61.9505C6.44748 64.4673 9.86097 65.8812 13.4202 65.8812C13.7438 65.8812 14.0541 66.0097 14.2829 66.2385C14.5117 66.4673 14.6403 66.7777 14.6403 67.1012V81.3999C14.653 83.0138 15.2998 84.558 16.441 85.6992C17.5823 86.8405 19.1265 87.4872 20.7404 87.5C22.1672 87.4994 23.5487 86.9986 24.6444 86.0848L43.14 70.6637C46.8625 67.543 51.5564 65.8173 56.4138 65.7836H71.9813C78.1123 65.7837 83.9936 63.3548 88.3379 59.0288C92.6823 54.7027 95.1359 48.8317 95.1617 42.7008V23.1804C95.1617 17.0326 92.7195 11.1366 88.3723 6.78939C84.0252 2.44222 78.1291 0 71.9813 0ZM87.8416 42.7008C87.8287 46.9032 86.1536 50.9299 83.182 53.9015C80.2104 56.8731 76.1838 58.5482 71.9813 58.5611H56.4138C49.8529 58.5585 43.4985 60.8551 38.4551 65.0516L21.9604 78.8134V67.1012C21.9476 64.8402 21.0437 62.6754 19.4449 61.0766C17.8461 59.4778 15.6813 58.5739 13.4202 58.5611C11.8024 58.5611 10.2508 57.9184 9.10681 56.7744C7.96282 55.6304 7.32013 54.0788 7.32013 52.461V23.1804C7.333 18.978 9.00813 14.9513 11.9797 11.9797C14.9513 9.00813 18.978 7.33301 23.1804 7.32013H71.9813C76.1838 7.33301 80.2104 9.00813 83.182 11.9797C86.1536 14.9513 87.8287 18.978 87.8416 23.1804V42.7008Z" fill="black"/>
<path d="M67.1012 19.5205H28.0605C27.0897 19.5205 26.1588 19.9061 25.4724 20.5925C24.786 21.2789 24.4004 22.2099 24.4004 23.1806C24.4004 24.1513 24.786 25.0822 25.4724 25.7686C26.1588 26.455 27.0897 26.8406 28.0605 26.8406H67.1012C68.0719 26.8406 69.0028 26.455 69.6892 25.7686C70.3756 25.0822 70.7612 24.1513 70.7612 23.1806C70.7612 22.2099 70.3756 21.2789 69.6892 20.5925C69.0028 19.9061 68.0719 19.5205 67.1012 19.5205Z" fill="black"/>
<path d="M67.1012 39.041H28.0605C27.0897 39.041 26.1588 39.4266 25.4724 40.113C24.786 40.7994 24.4004 41.7304 24.4004 42.7011C24.4004 43.6718 24.786 44.6027 25.4724 45.2891C26.1588 45.9755 27.0897 46.3611 28.0605 46.3611H67.1012C68.0719 46.3611 69.0028 45.9755 69.6892 45.2891C70.3756 44.6027 70.7612 43.6718 70.7612 42.7011C70.7612 41.7304 70.3756 40.7994 69.6892 40.113C69.0028 39.4266 68.0719 39.041 67.1012 39.041Z" fill="black"/>
</svg>
