<svg width="82" height="88" viewBox="0 0 82 88" fill="none" xmlns="http://www.w3.org/2000/svg">
<path fill-rule="evenodd" clip-rule="evenodd" d="M17.5281 48.9406C17.5187 48.9437 17.5094 48.95 17.5 48.9531C7.23439 53.1438 0 63.2281 0 75V78.125C0 80.6125 0.987493 82.9969 2.74687 84.7531C4.50312 86.5125 6.8875 87.5 9.375 87.5C23.5 87.5 57.75 87.5 71.875 87.5C74.3625 87.5 76.7469 86.5125 78.5031 84.7531C80.2625 82.9969 81.25 80.6125 81.25 78.125C81.25 77.1531 81.25 76.1031 81.25 75C81.25 63.2281 74.0188 53.1469 63.7625 48.9375C63.7531 48.9344 63.7406 48.9281 63.7312 48.925C61.1531 47.9 58.2563 48.075 55.8219 49.3969C51.3063 51.7719 46.1219 53.125 40.625 53.125C35.125 53.125 29.9406 51.7688 25.3781 49.3906C22.9563 48.0906 20.0844 47.925 17.5281 48.9406ZM19.8438 54.7469C20.6906 54.4125 21.6375 54.4719 22.4375 54.9062C22.4531 54.9156 22.4688 54.9219 22.4844 54.9312C27.9125 57.7625 34.0812 59.375 40.625 59.375C47.1719 59.375 53.3437 57.7594 58.7687 54.9094C58.7781 54.9031 58.7906 54.8969 58.8031 54.8906C59.6031 54.4563 60.55 54.3937 61.3969 54.7219C69.3781 58.0062 75 65.8469 75 75V78.125C75 78.9531 74.6719 79.75 74.0844 80.3344C73.5 80.9219 72.7031 81.25 71.875 81.25H9.375C8.54688 81.25 7.75 80.9219 7.16562 80.3344C6.57812 79.75 6.25 78.9531 6.25 78.125V75C6.25 65.85 11.8688 58.0094 19.8438 54.7469ZM40.625 0C27.6906 0 17.1875 10.5031 17.1875 23.4375C17.1875 36.3719 27.6906 46.875 40.625 46.875C53.5594 46.875 64.0625 36.3719 64.0625 23.4375C64.0625 10.5031 53.5594 0 40.625 0ZM40.625 6.25C50.1125 6.25 57.8125 13.95 57.8125 23.4375C57.8125 32.925 50.1125 40.625 40.625 40.625C31.1375 40.625 23.4375 32.925 23.4375 23.4375C23.4375 13.95 31.1375 6.25 40.625 6.25Z" fill="black"/>
</svg>
