<svg width="98" height="88" viewBox="0 0 98 88" fill="none" xmlns="http://www.w3.org/2000/svg">
<path d="M87.7547 16.4827H71.887C70.7587 16.5786 70.2925 16.2954 70.3839 15.0755V9.44227C70.3839 4.46695 67.2864 1.08608 62.3109 0.428262C57.9934 -0.229598 53.7673 0.145072 49.4502 0.145072C44.4748 0.145072 39.591 -0.325449 34.6153 0.428262C30.6724 0.990282 27.9495 3.80902 27.5749 7.75189C27.3875 10.0043 27.2917 12.2568 27.3875 14.5135C27.3875 16.1081 27.1043 16.5786 25.4183 16.5786C19.785 16.3913 14.1513 16.4828 8.6149 16.5786C4.57622 16.6745 1.19982 19.6762 0.541888 23.7149C-0.394801 29.3482 0.167208 35.0733 0.167208 40.7057C0.167208 42.5834 1.19975 44.3653 2.89015 45.4937C3.73535 46.0558 3.92269 46.8095 3.92269 47.842C3.82684 56.9476 3.92269 66.053 3.92269 75.1584C3.92269 76.5656 3.82684 77.8814 4.20588 79.2886C5.80045 84.3598 9.65176 87.3616 15.1892 87.4574C26.3602 87.5532 37.5302 87.4574 48.7971 87.4574C59.8763 87.4574 71.0466 87.5532 82.2177 87.4574C89.6328 87.3659 93.9508 82.7653 93.9508 75.3462V48.3041C93.9508 46.9884 94.1382 46.1432 95.1708 45.298C96.7653 43.9823 97.5191 42.2004 97.4232 40.1353C97.4232 35.4432 97.6105 30.8425 97.519 26.1459C97.4232 19.8635 94.0458 16.5743 87.7547 16.4827ZM33.2089 9.06329C33.2089 7.28134 34.1499 6.15297 35.9318 6.15297C44.4754 6.05713 52.9226 6.05713 61.4671 6.15297C63.0616 6.15297 64.0942 7.08966 64.4732 8.68854C64.569 9.15907 64.6605 9.53374 64.6605 10.0043C64.6605 12.0694 65.3184 14.7923 64.2858 16.1081C63.3491 17.4238 60.5303 16.4828 58.4652 16.4828C55.2717 16.5786 52.0826 16.4828 48.8892 16.4828C44.197 16.4828 39.5004 16.4828 34.8083 16.5786C33.5884 16.5786 33.1179 16.2039 33.2137 14.984C33.3052 13.0061 33.2089 11.0368 33.2089 9.06329ZM88.2254 75.717C88.2254 79.5683 85.973 81.7249 81.8427 81.7249L16.1259 81.7292C11.621 81.7292 9.46006 79.4769 9.46006 74.8762C9.36421 67.2737 9.36421 59.6666 9.36421 52.156V48.1173C19.2234 50.8403 28.7953 53.5632 38.3714 56.1903C39.4998 56.4735 39.8745 56.8482 39.7786 57.9723C39.404 64.2633 40.8112 63.8887 45.7865 63.7929H54.7047C56.6739 63.7929 57.7108 62.8519 57.7108 60.8826C57.8023 56.4693 57.8982 56.3777 62.1242 55.2493C70.293 52.9969 78.458 50.836 86.6266 48.6794C88.0338 48.3048 88.2212 48.6794 88.2212 49.8994L88.2254 75.717ZM45.5075 55.7238C45.6034 55.0659 45.5075 54.408 45.5075 53.7502C45.5075 48.7749 45.5075 48.8664 50.4828 48.8664C51.7986 48.9622 52.0774 49.3369 51.986 50.5567C51.8945 51.4978 51.8945 52.4345 51.8945 53.3755C51.8945 57.7888 51.8945 57.693 47.4811 57.7888C45.7908 57.8803 45.2287 57.3184 45.5075 55.7238ZM91.7888 39.0118C91.8803 40.7938 91.0395 41.5474 89.5364 41.9222C79.0236 44.6451 68.4145 47.4595 57.7108 50.2783V45.865C57.7108 43.8958 56.7697 42.8589 54.8005 42.8589C50.8576 42.7674 46.819 42.7674 42.7851 42.8589C40.8116 42.8589 39.8748 43.9873 39.779 45.9565V50.4614C33.9584 48.8668 28.2332 47.3638 22.6009 45.7692C17.8128 44.5493 13.1206 43.1421 8.42404 41.9179C6.64209 41.4474 5.79691 40.5107 5.79691 38.633C5.89275 34.5943 5.7969 30.5599 5.89275 26.6176C5.89275 23.4241 7.11269 22.3001 10.2103 22.3001H87.4718C90.6653 22.3001 91.7893 23.3327 91.7893 26.5262C91.7893 30.7522 91.6973 34.882 91.7888 39.0118Z" fill="black"/>
</svg>
